<!-- icon666.com - MILLIONS vector ICONS FREE --><svg clip-rule="evenodd" fill-rule="evenodd" image-rendering="optimizeQuality" shape-rendering="geometricPrecision" text-rendering="geometricPrecision" viewBox="0 0 2833 2833" xmlns="http://www.w3.org/2000/svg" xmlns:xlink="http://www.w3.org/1999/xlink"><linearGradient id="id0" gradientUnits="userSpaceOnUse" x1="-.004" x2="2833.33" y1="1416.67" y2="1416.67"><stop offset="0" stop-color="#26a9e0"></stop><stop offset=".0901961" stop-color="#2297d3"></stop><stop offset=".231373" stop-color="#1e84c6"></stop><stop offset=".368627" stop-color="#1c79be"></stop><stop offset=".521569" stop-color="#1b75bb"></stop><stop offset=".960784" stop-color="#2b388f"></stop><stop offset="1" stop-color="#2b388f"></stop></linearGradient><g id="Layer_x0020_1"><circle cx="1417" cy="1417" fill="url(#id0)" r="1417" style="fill: rgb(79, 70, 229);"></circle><g fill="#fff"><path d="m1344 1959c-75 0-191-68-296-173-66-66-118-137-148-201-33-70-34-124-5-154l45-45c29 83 108 214 201 307s223 173 306 200l-45 45c-14 14-33 21-58 21zm-371-605 599-600c3-3 6-4 9-5l664-185c7-2 14 0 19 5s7 13 5 20l-184 663c-1 3-3 6-6 9l-600 600c-72-17-214-100-310-197-95-95-178-238-196-310zm792-91c-52 0-101-20-138-57-36-37-57-85-57-137s21-101 57-137c37-37 86-57 138-57 51 0 100 20 137 57 75 75 75 198 0 274-37 37-86 57-137 57z" fill="#fff"></path><path d="m848 1428-267-33c-8-1-14-6-17-14-2-7 0-15 5-20l383-383c4-4 10-7 17-6l292 37-394 394c-8 8-14 16-19 25z" fill="#fff"></path><path d="m1459 2270c-3 0-5 0-7-1-7-3-12-9-13-17l-34-267c9-5 18-11 26-19l393-393 37 292c1 6-1 12-6 16l-382 383c-4 4-9 6-14 6z" fill="#fff"></path><path d="m584 2269c-5 0-10-2-14-6-5-6-7-14-4-22 16-39 38-110 49-227 17-179 104-209 157-210 10 23 24 45 43 64l152 151c18 19 39 33 62 43-1 49-30 139-210 156-117 11-188 33-227 49-2 1-5 2-8 2z" fill="#fff"></path><path d="m1108 2038c-43 0-83-17-113-47l-151-151c-64-63-64-166 0-229l16-17c1 3 2 6 4 8 36 78 95 152 155 212 53 52 136 122 220 159l-18 18c-30 30-70 47-113 47z" fill="#fff"></path></g></g></svg>